<svg xmlns="http://www.w3.org/2000/svg" viewBox="0 0 512 512" id="tiktok"><path fill="#231f20" d="M395.51 444.79H111.73a47 47 0 0 1-46.9-46.9V114.11a47 47 0 0 1 46.9-46.9h283.78a47 47 0 0 1 46.9 46.9v283.78a47 47 0 0 1-46.9 46.9ZM111.73 77.13a37 37 0 0 0-37 37v283.76a37 37 0 0 0 37 37h283.78a37 37 0 0 0 37-37V114.11a37 37 0 0 0-37-37Z"></path><path fill="#ec1b52" d="M368.84 251.13v-41.9c-54.77-2.3-56.5-52.07-56.56-56.75v-.35H270v163.18a33.5 33.5 0 1 1-23.75-32.09V240a76 76 0 1 0 66.14 75.31c0-1.07 0-2.13-.07-3.18v-80.35c19.47 17.83 56.52 19.35 56.52 19.35Z"></path><path fill="#6ac9d2" d="M341.34 231.11v-41.89c-54.77-2.31-56.5-52.08-56.57-56.76v-.35h-42.29v163.18a33.51 33.51 0 1 1-23.76-32.09V220a76 76 0 1 0 66.15 75.31c0-1.07 0-2.12-.07-3.18v-80.37c19.48 17.83 56.54 19.35 56.54 19.35Z"></path><path fill="#231f20" d="M225.45 380.51a80.89 80.89 0 1 1 10.36-161.11l4.32.56v54.27l-6.4-2a28.76 28.76 0 0 0-8.29-1.24 28.56 28.56 0 0 0 0 57.11A28.59 28.59 0 0 0 254 299.62V131.49h52.2v5.31a62.14 62.14 0 0 0 7.16 26.88c8.57 15.65 23.59 24 44.66 24.92l4.75.19v51.82l-5.16-.21c-1.39-.06-30.38-1.4-51.38-14.42v70.37c.05 1.25.07 2.29.07 3.27a82.49 82.49 0 0 1-.67 10.42 81 81 0 0 1-80.18 70.47Zm-.2-151.88a70.92 70.92 0 1 0 71.12 71c0-1 0-2-.07-3v-91.79l8.31 7.6c13.76 12.6 37.74 16.49 48.24 17.62v-31.88c-46.91-4.38-54.93-42.76-56.3-56.78h-32.66v158.22a38.46 38.46 0 0 1-38.47 38.45 38.47 38.47 0 0 1 0-76.94 38 38 0 0 1 4.77.3V228.8c-1.63-.11-3.29-.17-4.94-.17Z"></path></svg>